<svg xmlns="http://www.w3.org/2000/svg" xmlns:ev="http://www.w3.org/2001/xml-events" xmlns:xlink="http://www.w3.org/1999/xlink" width="685.32" height="397.32" class="st15" color-interpolation-filters="sRGB" viewBox="0 0 513.99 297.99" xml:space="preserve"><style type="text/css">.st1{fill:#fff;stroke:#000;stroke-linecap:round;stroke-linejoin:round;stroke-width:.24}.st2{fill:#000;font-family:Arial,Helvetica,sans-serif;font-size:.666664em}.st3{font-size:1em}.st4{stroke:#000;stroke-dasharray:1.68,1.2}.st4,.st5,.st6{stroke-linecap:round;stroke-linejoin:round;stroke-width:.24}.st5{fill:#f2f2f2;stroke:#000}.st6{marker-end:url(#mrkr1-28)}.st6,.st7,.st8{stroke:#000}.st7{fill:#000;fill-opacity:1;stroke-opacity:1;stroke-width:.08695652173913}.st8{fill:#fdebdd;stroke-width:.24}.st10,.st11,.st8,.st9{stroke-linecap:round;stroke-linejoin:round}.st9{fill:#fdebdd;stroke:none;stroke-width:.75}.st10,.st11{stroke:#000;stroke-width:.24}.st11{fill:#ebf1df}.st12{font-size:1em;font-weight:700}.st13,.st14{fill:none;stroke:none;stroke-linecap:round;stroke-linejoin:round;stroke-width:.75}.st14{fill:#ebf1df}.st15{fill:none;fill-rule:evenodd;font-size:12px;overflow:visible;stroke-linecap:square;stroke-miterlimit:3}</style><defs id="Markers"><g id="lend1"><path d="M 1 -1 L 0 0 L 1 1" style="stroke-linecap:round;stroke-linejoin:round;fill:none"/></g><marker id="mrkr1-28" class="st7" markerUnits="strokeWidth" orient="auto" overflow="visible"><use transform="scale(-11.5,-11.5)" xlink:href="#lend1"/></marker></defs><g><title>Page-1</title><g id="shape1-1" transform="translate(45.24,-185.25)"><title>Rectangle</title><desc>Authoring Tool</desc><rect width="72" height="36" x="0" y="261.99" class="st1"/><text x="9.98" y="282.39" class="st2">Authoring Tool</text></g><g id="shape2-4" transform="translate(189.24,-185.25)"><title>Rectangle.2</title><desc>Distribution System</desc><rect width="72" height="36" x="0" y="261.99" class="st1"/><text x="15.99" y="277.59" class="st2">Distribution <tspan x="22.66" class="st3" dy="1.2em">System</tspan></text></g><g id="shape3-8" transform="translate(342.24,-185.25)"><title>Rectangle.3</title><desc>Presentation Processor</desc><rect width="72" height="36" x="0" y="261.99" class="st1"/><text x="13.54" y="277.59" class="st2">Presentation <tspan x="17.99" class="st3" dy="1.2em">Processor</tspan></text></g><g id="shape5-12" transform="translate(451.23,22.74) rotate(90)"><title>Sheet.5</title><path d="M0 297.99 L261 297.99" class="st4"/></g><g id="shape6-15" transform="translate(595.23,22.74) rotate(90)"><title>Sheet.6</title><path d="M0 297.99 L261 297.99" class="st4"/></g><g id="group9-18" transform="translate(126.24,-215.25)"><title>Sheet.9</title><g id="shape8-19"><title>Sheet.8</title><path d="M12 273.99 L0 273.99 L0 297.99 L18 297.99 L18 279.99 L12 273.99 Z" class="st1"/></g><g id="shape7-21" transform="translate(12,-18)"><title>Sheet.7</title><path d="M0 291.99 L6 297.99 L0 297.99 L0 291.99 Z" class="st5"/></g></g><g id="shape10-23" transform="translate(117.24,-203.25)"><title>Sheet.10</title><path d="M0 297.99 L72 297.99" class="st6"/></g><g id="shape11-29" transform="translate(261.24,-203.25)"><title>Sheet.11</title><path d="M0 297.99 L81 297.99" class="st6"/></g><g id="shape12-34" transform="translate(0.24,-261.75)"><title>Rectangle.12</title><desc>IMSC instance document that exceeds the capabilities of the p...</desc><rect width="135" height="36" x="0" y="261.99" class="st8"/><text x="4" y="273.19" class="st2">IMSC instance document that <tspan x="4" class="st3" dy="1.2em">exceeds the capabilities of the </tspan><tspan x="4" class="st3" dy="1.2em">presentation processor</tspan></text></g><g id="shape14-39" transform="translate(414.24,-203.25)"><title>Sheet.14</title><path d="M0 297.99 L40.5 297.99" class="st6"/></g><g id="shape18-44" transform="translate(454.74,-185.25)"><title>Sheet.18</title><desc>Incomplete presentation</desc><rect width="58.5" height="36" x="0" y="261.99" class="st9"/><text x="4" y="277.59" class="st2">Incomplete <tspan x="4" class="st3" dy="1.2em">presentation</tspan></text></g><g id="shape13-48" transform="translate(174.712,-241.888) rotate(21.0375)"><title>Sheet.13</title><path d="M0 297.99 L62.68 297.99" class="st10"/></g><g id="shape20-51" transform="translate(45.24,-41.25)"><title>Rectangle.20</title><desc>Authoring Tool</desc><rect width="72" height="36" x="0" y="261.99" class="st1"/><text x="9.98" y="282.39" class="st2">Authoring Tool</text></g><g id="shape21-54" transform="translate(189.24,-41.25)"><title>Rectangle.21</title><desc>Distribution System</desc><rect width="72" height="36" x="0" y="261.99" class="st1"/><text x="15.99" y="277.59" class="st2">Distribution <tspan x="22.66" class="st3" dy="1.2em">System</tspan></text></g><g id="shape22-58" transform="translate(342.24,-41.25)"><title>Rectangle.22</title><desc>Presentation Processor</desc><rect width="72" height="36" x="0" y="261.99" class="st1"/><text x="13.54" y="277.59" class="st2">Presentation <tspan x="17.99" class="st3" dy="1.2em">Processor</tspan></text></g><g id="group25-62" transform="translate(126.24,-71.25)"><title>Sheet.25</title><g id="shape26-63"><title>Sheet.26</title><path d="M12 273.99 L0 273.99 L0 297.99 L18 297.99 L18 279.99 L12 273.99 Z" class="st1"/></g><g id="shape27-65" transform="translate(12,-18)"><title>Sheet.27</title><path d="M0 291.99 L6 297.99 L0 297.99 L0 291.99 Z" class="st5"/></g></g><g id="shape28-67" transform="translate(117.24,-59.25)"><title>Sheet.28</title><path d="M0 297.99 L72 297.99" class="st6"/></g><g id="shape29-72" transform="translate(261.24,-59.25)"><title>Sheet.29</title><path d="M0 297.99 L81 297.99" class="st6"/></g><g id="shape30-77" transform="translate(0.24,-117.75)"><title>Rectangle.30</title><desc>Implementer verifies that the IMSC instance document is withi...</desc><rect width="135" height="36" x="0" y="261.99" class="st11"/><text x="4" y="273.19" class="st2">Implementer verifies that the IMSC <tspan x="4" class="st3" dy="1.2em">instance document is within the </tspan><tspan x="4" class="st3" dy="1.2em">limits of the </tspan><tspan class="st12">HRM</tspan></text></g><g id="shape31-83" transform="translate(414.24,-59.25)"><title>Sheet.31</title><path d="M0 297.99 L40.5 297.99" class="st6"/></g><g id="shape32-88" transform="translate(45.24,-0.75)"><title>Sheet.32</title><desc>Author</desc><rect width="108" height="13.5" x="0" y="284.49" class="st13"/><text x="42.21" y="293.64" class="st2">Author</text></g><g id="shape33-91" transform="translate(153.24,-0.75)"><title>Sheet.33</title><desc>Distributor</desc><rect width="144" height="13.5" x="0" y="284.49" class="st13"/><text x="53.77" y="293.64" class="st2">Distributor</text></g><g id="shape34-94" transform="translate(297.24,-0.75)"><title>Sheet.34</title><desc>End-user</desc><rect width="162" height="13.5" x="0" y="284.49" class="st13"/><text x="64.77" y="293.64" class="st2">End-user</text></g><g id="shape35-97" transform="translate(454.74,-41.25)"><title>Sheet.35</title><desc>Complete presentation</desc><rect width="58.5" height="36" x="0" y="261.99" class="st14"/><text x="4" y="277.59" class="st2">Complete <tspan x="4" class="st3" dy="1.2em">presentation</tspan></text></g><g id="shape36-101" transform="translate(174.712,-97.8877) rotate(21.0375)"><title>Sheet.36</title><path d="M0 297.99 L62.68 297.99" class="st10"/></g><g id="shape37-104" transform="translate(373.74,-113.25)"><title>Rectangle.37</title><desc>Implementer ensures that the presentation processor can rende...</desc><rect width="135" height="45" x="0" y="252.99" class="st11"/><text x="4" y="264.19" class="st2">Implementer ensures that the <tspan x="4" class="st3" dy="1.2em">presentation processor can render </tspan><tspan x="4" class="st3" dy="1.2em">all IMSC instance document that </tspan><tspan x="4" class="st3" dy="1.2em">are within the limits of the </tspan><tspan class="st12">HRM</tspan></text></g><g id="shape38-111" transform="translate(589.084,443.468) rotate(150.255)"><title>Sheet.38</title><path d="M0 297.99 L72.56 297.99" class="st10"/></g></g></svg>